<mxfile host="app.diagrams.net" modified="2024-05-31T13:58:55.433Z" agent="Mozilla/5.0 (Windows NT 10.0; Win64; x64) AppleWebKit/537.36 (KHTML, like Gecko) Chrome/125.0.0.0 Safari/537.36" etag="uCL5wJ9CgHVQY5UaGPP2" version="24.4.13" type="device">
  <diagram name="Trang-1" id="63NErRz7sCI1-4AgYJxi">
    <mxGraphModel dx="794" dy="412" grid="1" gridSize="10" guides="1" tooltips="1" connect="1" arrows="1" fold="1" page="1" pageScale="1" pageWidth="827" pageHeight="1169" math="0" shadow="0">
      <root>
        <mxCell id="0" />
        <mxCell id="1" parent="0" />
        <mxCell id="yy0YBujETfPeGJ3hFpeW-1" value="Client" style="swimlane;whiteSpace=wrap;html=1;" vertex="1" parent="1">
          <mxGeometry x="80" y="40" width="280" height="920" as="geometry" />
        </mxCell>
        <mxCell id="yy0YBujETfPeGJ3hFpeW-2" value="" style="ellipse;shape=doubleEllipse;whiteSpace=wrap;html=1;aspect=fixed;fillColor=#000000;" vertex="1" parent="yy0YBujETfPeGJ3hFpeW-1">
          <mxGeometry x="20" y="55" width="30" height="30" as="geometry" />
        </mxCell>
        <mxCell id="yy0YBujETfPeGJ3hFpeW-3" value="Chọn chức năng nhập điểm từ excel" style="rounded=0;whiteSpace=wrap;html=1;" vertex="1" parent="yy0YBujETfPeGJ3hFpeW-1">
          <mxGeometry x="80" y="40" width="140" height="60" as="geometry" />
        </mxCell>
        <mxCell id="yy0YBujETfPeGJ3hFpeW-4" value="" style="endArrow=classic;html=1;rounded=0;exitX=1;exitY=0.5;exitDx=0;exitDy=0;entryX=0;entryY=0.5;entryDx=0;entryDy=0;" edge="1" parent="yy0YBujETfPeGJ3hFpeW-1" source="yy0YBujETfPeGJ3hFpeW-2" target="yy0YBujETfPeGJ3hFpeW-3">
          <mxGeometry width="50" height="50" relative="1" as="geometry">
            <mxPoint x="310" y="200" as="sourcePoint" />
            <mxPoint x="360" y="150" as="targetPoint" />
          </mxGeometry>
        </mxCell>
        <mxCell id="yy0YBujETfPeGJ3hFpeW-8" value="" style="ellipse;html=1;shape=endState;fillColor=#000000;strokeColor=#ff0000;" vertex="1" parent="yy0YBujETfPeGJ3hFpeW-1">
          <mxGeometry x="135" y="870" width="30" height="30" as="geometry" />
        </mxCell>
        <mxCell id="yy0YBujETfPeGJ3hFpeW-25" value="Hiển thị hộp thoại chọn file" style="rounded=0;whiteSpace=wrap;html=1;" vertex="1" parent="yy0YBujETfPeGJ3hFpeW-1">
          <mxGeometry x="80" y="150" width="140" height="60" as="geometry" />
        </mxCell>
        <mxCell id="yy0YBujETfPeGJ3hFpeW-26" value="" style="endArrow=classic;html=1;rounded=0;exitX=0.5;exitY=1;exitDx=0;exitDy=0;entryX=0.5;entryY=0;entryDx=0;entryDy=0;" edge="1" parent="yy0YBujETfPeGJ3hFpeW-1" source="yy0YBujETfPeGJ3hFpeW-3" target="yy0YBujETfPeGJ3hFpeW-25">
          <mxGeometry width="50" height="50" relative="1" as="geometry">
            <mxPoint x="300" y="140" as="sourcePoint" />
            <mxPoint x="350" y="90" as="targetPoint" />
          </mxGeometry>
        </mxCell>
        <mxCell id="yy0YBujETfPeGJ3hFpeW-27" value="Chọn file excel cần nhập và bấm đồng ý" style="rounded=0;whiteSpace=wrap;html=1;" vertex="1" parent="yy0YBujETfPeGJ3hFpeW-1">
          <mxGeometry x="80" y="260" width="140" height="60" as="geometry" />
        </mxCell>
        <mxCell id="yy0YBujETfPeGJ3hFpeW-28" value="" style="endArrow=classic;html=1;rounded=0;exitX=0.5;exitY=1;exitDx=0;exitDy=0;entryX=0.5;entryY=0;entryDx=0;entryDy=0;" edge="1" parent="yy0YBujETfPeGJ3hFpeW-1" source="yy0YBujETfPeGJ3hFpeW-25" target="yy0YBujETfPeGJ3hFpeW-27">
          <mxGeometry width="50" height="50" relative="1" as="geometry">
            <mxPoint x="300" y="340" as="sourcePoint" />
            <mxPoint x="350" y="290" as="targetPoint" />
          </mxGeometry>
        </mxCell>
        <mxCell id="yy0YBujETfPeGJ3hFpeW-33" value="Hiển thị thông báo lỗi" style="rounded=0;whiteSpace=wrap;html=1;" vertex="1" parent="yy0YBujETfPeGJ3hFpeW-1">
          <mxGeometry x="20" y="360" width="120" height="60" as="geometry" />
        </mxCell>
        <mxCell id="yy0YBujETfPeGJ3hFpeW-43" value="Hiển thị thông báo nhập điểm thành công" style="rounded=0;whiteSpace=wrap;html=1;" vertex="1" parent="yy0YBujETfPeGJ3hFpeW-1">
          <mxGeometry x="80" y="690" width="140" height="60" as="geometry" />
        </mxCell>
        <mxCell id="yy0YBujETfPeGJ3hFpeW-46" value="" style="html=1;points=[[0,0,0,0,5],[0,1,0,0,-5],[1,0,0,0,5],[1,1,0,0,-5]];perimeter=orthogonalPerimeter;outlineConnect=0;targetShapes=umlLifeline;portConstraint=eastwest;newEdgeStyle={&quot;curved&quot;:0,&quot;rounded&quot;:0};direction=south;fillColor=#000000;" vertex="1" parent="yy0YBujETfPeGJ3hFpeW-1">
          <mxGeometry x="90" y="820" width="120" height="10" as="geometry" />
        </mxCell>
        <mxCell id="yy0YBujETfPeGJ3hFpeW-47" value="" style="endArrow=classic;html=1;rounded=0;exitX=0.75;exitY=1;exitDx=0;exitDy=0;" edge="1" parent="yy0YBujETfPeGJ3hFpeW-1" source="yy0YBujETfPeGJ3hFpeW-43" target="yy0YBujETfPeGJ3hFpeW-46">
          <mxGeometry width="50" height="50" relative="1" as="geometry">
            <mxPoint x="300" y="720" as="sourcePoint" />
            <mxPoint x="350" y="670" as="targetPoint" />
          </mxGeometry>
        </mxCell>
        <mxCell id="yy0YBujETfPeGJ3hFpeW-48" value="" style="endArrow=classic;html=1;rounded=0;exitX=0.25;exitY=1;exitDx=0;exitDy=0;" edge="1" parent="yy0YBujETfPeGJ3hFpeW-1" source="yy0YBujETfPeGJ3hFpeW-33" target="yy0YBujETfPeGJ3hFpeW-46">
          <mxGeometry width="50" height="50" relative="1" as="geometry">
            <mxPoint x="300" y="520" as="sourcePoint" />
            <mxPoint x="350" y="470" as="targetPoint" />
            <Array as="points">
              <mxPoint x="50" y="800" />
              <mxPoint x="110" y="800" />
            </Array>
          </mxGeometry>
        </mxCell>
        <mxCell id="yy0YBujETfPeGJ3hFpeW-49" value="" style="endArrow=classic;html=1;rounded=0;entryX=0.5;entryY=0;entryDx=0;entryDy=0;" edge="1" parent="yy0YBujETfPeGJ3hFpeW-1" source="yy0YBujETfPeGJ3hFpeW-46" target="yy0YBujETfPeGJ3hFpeW-8">
          <mxGeometry width="50" height="50" relative="1" as="geometry">
            <mxPoint x="300" y="770" as="sourcePoint" />
            <mxPoint x="350" y="720" as="targetPoint" />
          </mxGeometry>
        </mxCell>
        <mxCell id="yy0YBujETfPeGJ3hFpeW-21" value="Server" style="swimlane;whiteSpace=wrap;html=1;" vertex="1" parent="1">
          <mxGeometry x="360" y="40" width="280" height="920" as="geometry" />
        </mxCell>
        <mxCell id="yy0YBujETfPeGJ3hFpeW-29" value="Kiểm tra dữ liệu file nhập vào có hợp lệ hay không" style="rounded=0;whiteSpace=wrap;html=1;" vertex="1" parent="yy0YBujETfPeGJ3hFpeW-21">
          <mxGeometry x="60" y="260" width="150" height="60" as="geometry" />
        </mxCell>
        <mxCell id="yy0YBujETfPeGJ3hFpeW-31" value="" style="html=1;whiteSpace=wrap;aspect=fixed;shape=isoRectangle;" vertex="1" parent="yy0YBujETfPeGJ3hFpeW-21">
          <mxGeometry x="85" y="360" width="100" height="60" as="geometry" />
        </mxCell>
        <mxCell id="yy0YBujETfPeGJ3hFpeW-32" value="" style="endArrow=classic;html=1;rounded=0;exitX=0.5;exitY=1;exitDx=0;exitDy=0;" edge="1" parent="yy0YBujETfPeGJ3hFpeW-21" source="yy0YBujETfPeGJ3hFpeW-29" target="yy0YBujETfPeGJ3hFpeW-31">
          <mxGeometry width="50" height="50" relative="1" as="geometry">
            <mxPoint x="20" y="440" as="sourcePoint" />
            <mxPoint x="70" y="390" as="targetPoint" />
          </mxGeometry>
        </mxCell>
        <mxCell id="yy0YBujETfPeGJ3hFpeW-35" value="Không" style="text;html=1;align=center;verticalAlign=middle;whiteSpace=wrap;rounded=0;" vertex="1" parent="yy0YBujETfPeGJ3hFpeW-21">
          <mxGeometry x="30" y="360" width="60" height="30" as="geometry" />
        </mxCell>
        <mxCell id="yy0YBujETfPeGJ3hFpeW-36" value="Lưu dữ liệu" style="rounded=0;whiteSpace=wrap;html=1;" vertex="1" parent="yy0YBujETfPeGJ3hFpeW-21">
          <mxGeometry x="60" y="470" width="150" height="60" as="geometry" />
        </mxCell>
        <mxCell id="yy0YBujETfPeGJ3hFpeW-37" value="" style="endArrow=classic;html=1;rounded=0;exitX=0.503;exitY=0.989;exitDx=0;exitDy=0;exitPerimeter=0;entryX=0.5;entryY=0;entryDx=0;entryDy=0;" edge="1" parent="yy0YBujETfPeGJ3hFpeW-21" source="yy0YBujETfPeGJ3hFpeW-31" target="yy0YBujETfPeGJ3hFpeW-36">
          <mxGeometry width="50" height="50" relative="1" as="geometry">
            <mxPoint x="20" y="440" as="sourcePoint" />
            <mxPoint x="70" y="390" as="targetPoint" />
          </mxGeometry>
        </mxCell>
        <mxCell id="yy0YBujETfPeGJ3hFpeW-38" value="Có" style="text;html=1;align=center;verticalAlign=middle;whiteSpace=wrap;rounded=0;" vertex="1" parent="yy0YBujETfPeGJ3hFpeW-21">
          <mxGeometry x="125" y="420" width="60" height="30" as="geometry" />
        </mxCell>
        <mxCell id="yy0YBujETfPeGJ3hFpeW-39" value="" style="html=1;whiteSpace=wrap;aspect=fixed;shape=isoRectangle;" vertex="1" parent="yy0YBujETfPeGJ3hFpeW-21">
          <mxGeometry x="85" y="590" width="100" height="60" as="geometry" />
        </mxCell>
        <mxCell id="yy0YBujETfPeGJ3hFpeW-40" value="" style="endArrow=classic;html=1;rounded=0;exitX=0.5;exitY=1;exitDx=0;exitDy=0;entryX=0.51;entryY=0.033;entryDx=0;entryDy=0;entryPerimeter=0;" edge="1" parent="yy0YBujETfPeGJ3hFpeW-21" source="yy0YBujETfPeGJ3hFpeW-36" target="yy0YBujETfPeGJ3hFpeW-39">
          <mxGeometry width="50" height="50" relative="1" as="geometry">
            <mxPoint x="20" y="610" as="sourcePoint" />
            <mxPoint x="70" y="560" as="targetPoint" />
          </mxGeometry>
        </mxCell>
        <mxCell id="yy0YBujETfPeGJ3hFpeW-42" value="Thất bại" style="text;html=1;align=center;verticalAlign=middle;whiteSpace=wrap;rounded=0;" vertex="1" parent="yy0YBujETfPeGJ3hFpeW-21">
          <mxGeometry x="10" y="590" width="74" height="30" as="geometry" />
        </mxCell>
        <mxCell id="yy0YBujETfPeGJ3hFpeW-45" value="Thành công" style="text;html=1;align=center;verticalAlign=middle;whiteSpace=wrap;rounded=0;" vertex="1" parent="yy0YBujETfPeGJ3hFpeW-21">
          <mxGeometry x="40" y="690" width="90" height="30" as="geometry" />
        </mxCell>
        <mxCell id="yy0YBujETfPeGJ3hFpeW-30" value="" style="endArrow=classic;html=1;rounded=0;exitX=1;exitY=0.5;exitDx=0;exitDy=0;entryX=0;entryY=0.5;entryDx=0;entryDy=0;" edge="1" parent="1" source="yy0YBujETfPeGJ3hFpeW-27" target="yy0YBujETfPeGJ3hFpeW-29">
          <mxGeometry width="50" height="50" relative="1" as="geometry">
            <mxPoint x="380" y="380" as="sourcePoint" />
            <mxPoint x="390" y="330" as="targetPoint" />
          </mxGeometry>
        </mxCell>
        <mxCell id="yy0YBujETfPeGJ3hFpeW-34" value="" style="endArrow=classic;html=1;rounded=0;exitX=0.017;exitY=0.511;exitDx=0;exitDy=0;exitPerimeter=0;entryX=1;entryY=0.5;entryDx=0;entryDy=0;" edge="1" parent="1" source="yy0YBujETfPeGJ3hFpeW-31" target="yy0YBujETfPeGJ3hFpeW-33">
          <mxGeometry width="50" height="50" relative="1" as="geometry">
            <mxPoint x="380" y="380" as="sourcePoint" />
            <mxPoint x="430" y="330" as="targetPoint" />
          </mxGeometry>
        </mxCell>
        <mxCell id="yy0YBujETfPeGJ3hFpeW-41" value="" style="endArrow=classic;html=1;rounded=0;exitX=0.003;exitY=0.533;exitDx=0;exitDy=0;exitPerimeter=0;entryX=0.5;entryY=1;entryDx=0;entryDy=0;" edge="1" parent="1">
          <mxGeometry width="50" height="50" relative="1" as="geometry">
            <mxPoint x="444.29999999999995" y="659.98" as="sourcePoint" />
            <mxPoint x="159" y="458" as="targetPoint" />
            <Array as="points">
              <mxPoint x="159" y="660" />
            </Array>
          </mxGeometry>
        </mxCell>
        <mxCell id="yy0YBujETfPeGJ3hFpeW-44" value="" style="endArrow=classic;html=1;rounded=0;entryX=1;entryY=0.5;entryDx=0;entryDy=0;" edge="1" parent="1">
          <mxGeometry width="50" height="50" relative="1" as="geometry">
            <mxPoint x="495" y="689" as="sourcePoint" />
            <mxPoint x="299" y="759" as="targetPoint" />
            <Array as="points">
              <mxPoint x="495" y="759" />
            </Array>
          </mxGeometry>
        </mxCell>
      </root>
    </mxGraphModel>
  </diagram>
</mxfile>
